<svg width="16" height="16" viewBox="0 0 16 16" fill="none" xmlns="http://www.w3.org/2000/svg">
<path d="M8.00005 0.799805C4.02868 0.799805 0.800049 4.02844 0.800049 7.9998C0.800049 11.9712 4.02868 15.1998 8.00005 15.1998C11.9714 15.1998 15.2 11.9712 15.2 7.9998C15.2 4.02844 11.9714 0.799805 8.00005 0.799805ZM11.0468 8.80317H8.00005C7.56047 8.80317 7.19668 8.43938 7.19668 7.9998V4.2558C7.19668 3.81623 7.56047 3.45244 8.00005 3.45244C8.43963 3.45244 8.80342 3.81623 8.80342 4.2558V7.21159H11.0468C11.4864 7.21159 11.8502 7.57538 11.8502 8.01496C11.8502 8.43938 11.4864 8.80317 11.0468 8.80317Z" fill="#FF742C"/>
</svg>
